<?xml version="1.0" encoding="UTF-8"?>
<svg id="Layer_1" data-name="Layer 1" xmlns="http://www.w3.org/2000/svg" version="1.1" viewBox="0 0 180 29.1">
  <defs>
    <style>
      .cls-1 {
        fill: #e42535;
      }

      .cls-1, .cls-2 {
        stroke-width: 0px;
      }

      .cls-2 {
        fill: #fff;
      }
    </style>
  </defs>
  <g>
    <path class="cls-2" d="M84.4,14.9c0-3.7,2.8-6.2,6.3-6.2s4.2,1.4,5.1,2.9l-2.2,1.1c-.5-1-1.6-1.7-2.9-1.7-2.1,0-3.7,1.7-3.7,3.9s1.6,3.9,3.7,3.9,2.4-.8,2.9-1.7l2.2,1.1c-.9,1.5-2.4,2.9-5.1,2.9s-6.3-2.5-6.3-6.2Z"/>
    <path class="cls-2" d="M107.3,19.2l.9,1-1.8,1.5-1-1.1c-.8.4-1.8.6-2.9.6-3.6,0-6.2-2.6-6.2-6.2s2.6-6.2,6.2-6.2,6.3,2.6,6.3,6.2-.6,3.2-1.6,4.2ZM103.8,18.6l-1.4-1.6,1.8-1.4,1.4,1.6c.4-.6.6-1.4.6-2.3,0-2.2-1.4-3.9-3.6-3.9s-3.6,1.7-3.6,3.9,1.4,3.9,3.6,3.9.9,0,1.3-.2Z"/>
    <path class="cls-2" d="M120.6,20.9v-8.6l-3.4,8.6h-1.1l-3.4-8.6v8.6h-2.5v-12h3.6l2.9,7.5,2.9-7.5h3.6v12h-2.6Z"/>
  </g>
  <g>
    <path class="cls-1" d="M78.6,2.9h-19.8l-2,2v19.3l2,2h19.8l2-2V4.9l-2-2ZM76.5,16.1l-6.2,6.2h-2.9l-6.4-6.4v-2.9l6.2-6.2h2.9l6.4,6.4v2.9Z"/>
    <rect class="cls-1" x="66.3" y="12.2" width="4.8" height="4.8"/>
  </g>
</svg>